<?xml version="1.0" encoding="utf-8"?>
<!-- Generator: Adobe Illustrator 14.0.0, SVG Export Plug-In . SVG Version: 6.00 Build 43363)  -->
<!DOCTYPE svg PUBLIC "-//W3C//DTD SVG 1.1//EN" "http://www.w3.org/Graphics/SVG/1.1/DTD/svg11.dtd">
<svg version="1.1" id="Layer_1" xmlns="http://www.w3.org/2000/svg" xmlns:xlink="http://www.w3.org/1999/xlink" x="0px" y="0px"
	 width="312px" height="123px" viewBox="0 0 312 123" enable-background="new 0 0 312 123" xml:space="preserve">
<g id="Layer_2">
</g>
<g id="Layer_3">
	<g enable-background="new    ">
		<path d="M124.924,88.551c0.348,0.228,0.935,0.384,1.535,0.384c0.983,0,1.751-0.492,2.086-2.062l0.192-0.876h-0.024
			c-0.516,0.827-1.223,1.235-2.015,1.235c-1.175,0-1.775-0.983-1.775-2.015c0-1.967,1.439-3.922,3.682-3.922
			c0.672,0,1.416,0.191,1.871,0.407l-0.899,4.798c-0.228,1.235-0.564,2.075-1.164,2.603c-0.587,0.491-1.367,0.636-2.027,0.636
			c-0.708,0-1.379-0.168-1.739-0.408L124.924,88.551z M129.385,82.29c-0.192-0.084-0.552-0.191-0.959-0.191
			c-1.451,0-2.458,1.522-2.458,2.95c-0.012,0.647,0.228,1.391,1.115,1.391c0.852,0,1.715-1.079,1.931-2.206L129.385,82.29z"/>
		<path d="M135.337,86.907c-0.432,0.24-1.139,0.456-1.919,0.456c-1.535,0-2.207-1.056-2.207-2.339c0-1.751,1.295-3.729,3.166-3.729
			c1.104,0,1.703,0.659,1.703,1.499c0,1.523-1.715,1.919-3.862,1.883c-0.048,0.252-0.012,0.792,0.12,1.104
			c0.228,0.527,0.696,0.779,1.295,0.779c0.684,0,1.199-0.204,1.559-0.396L135.337,86.907z M134.234,82.074
			c-0.947,0-1.655,0.924-1.907,1.835c1.571,0.024,2.794-0.191,2.794-1.104C135.122,82.338,134.762,82.074,134.234,82.074z"/>
		<path d="M136.599,87.231l0.768-4.113c0.132-0.648,0.216-1.212,0.276-1.691h0.888l-0.144,1.14h0.024
			c0.516-0.816,1.308-1.271,2.147-1.271c0.696,0,1.475,0.396,1.475,1.606c0,0.265-0.048,0.624-0.108,0.936l-0.647,3.395h-0.983
			l0.635-3.358c0.036-0.228,0.072-0.491,0.072-0.743c0-0.576-0.228-1.008-0.912-1.008c-0.708,0-1.715,0.852-1.979,2.291
			l-0.528,2.818H136.599z"/>
		<path d="M148.572,83.705c0,1.8-1.271,3.658-3.226,3.658c-1.451,0-2.267-1.079-2.267-2.387c0-1.919,1.331-3.682,3.214-3.682
			C147.865,81.295,148.572,82.482,148.572,83.705z M144.111,84.94c0,0.947,0.528,1.632,1.367,1.632c1.175,0,2.063-1.512,2.063-2.867
			c0-0.671-0.312-1.619-1.355-1.619C144.938,82.086,144.111,83.609,144.111,84.94z"/>
		<path d="M149.271,87.231l0.768-4.113c0.12-0.648,0.204-1.212,0.264-1.691h0.875l-0.144,1.091h0.024
			c0.54-0.815,1.271-1.223,2.039-1.223c0.887,0,1.307,0.563,1.355,1.295c0.516-0.84,1.259-1.283,2.123-1.295
			c0.671,0,1.415,0.432,1.415,1.522c0,0.265-0.035,0.66-0.096,0.984l-0.648,3.43h-0.971l0.623-3.346
			c0.049-0.229,0.084-0.517,0.084-0.756c0-0.612-0.228-1.008-0.875-1.008c-0.72,0-1.583,0.84-1.823,2.135l-0.551,2.975h-0.959
			l0.647-3.406c0.048-0.264,0.072-0.479,0.072-0.707c0-0.492-0.132-0.996-0.863-0.996c-0.72,0-1.631,0.96-1.859,2.195l-0.528,2.914
			H149.271z"/>
		<path d="M163.141,86.907c-0.432,0.24-1.139,0.456-1.919,0.456c-1.535,0-2.206-1.056-2.206-2.339c0-1.751,1.295-3.729,3.166-3.729
			c1.104,0,1.703,0.659,1.703,1.499c0,1.523-1.715,1.919-3.862,1.883c-0.048,0.252-0.013,0.792,0.12,1.104
			c0.228,0.527,0.695,0.779,1.295,0.779c0.684,0,1.199-0.204,1.559-0.396L163.141,86.907z M162.037,82.074
			c-0.947,0-1.654,0.924-1.906,1.835c1.57,0.024,2.794-0.191,2.794-1.104C162.925,82.338,162.564,82.074,162.037,82.074z"/>
		<path d="M172.74,78.716l-1.271,6.669c-0.108,0.611-0.204,1.283-0.24,1.847h-0.912l0.156-1.151h-0.023
			c-0.527,0.827-1.26,1.283-2.087,1.283c-1.128,0-1.739-0.924-1.739-2.11c0-2.063,1.535-3.958,3.586-3.958
			c0.372,0,0.779,0.084,1.031,0.204l0.516-2.783H172.74z M171.072,82.338c-0.191-0.144-0.527-0.252-0.947-0.252
			c-1.391,0-2.471,1.487-2.471,3.034c0,0.696,0.24,1.428,1.092,1.428c0.768,0,1.691-0.876,1.943-2.183L171.072,82.338z"/>
		<path d="M177.061,86.907c-0.432,0.24-1.139,0.456-1.919,0.456c-1.535,0-2.206-1.056-2.206-2.339c0-1.751,1.295-3.729,3.166-3.729
			c1.104,0,1.703,0.659,1.703,1.499c0,1.523-1.715,1.919-3.862,1.883c-0.048,0.252-0.013,0.792,0.12,1.104
			c0.228,0.527,0.695,0.779,1.295,0.779c0.684,0,1.199-0.204,1.559-0.396L177.061,86.907z M175.957,82.074
			c-0.947,0-1.654,0.924-1.906,1.835c1.57,0.024,2.794-0.191,2.794-1.104C176.845,82.338,176.484,82.074,175.957,82.074z"/>
		<path d="M178.371,86.224c0.275,0.168,0.768,0.36,1.247,0.36c0.672,0,1.104-0.432,1.104-0.947c0-0.456-0.204-0.732-0.815-1.067
			c-0.672-0.372-1.043-0.888-1.043-1.487c0-1.008,0.875-1.787,2.098-1.787c0.528,0,0.996,0.144,1.212,0.288l-0.276,0.755
			c-0.203-0.12-0.575-0.264-1.007-0.264c-0.6,0-1.032,0.372-1.032,0.876c0,0.419,0.276,0.684,0.805,0.971
			c0.646,0.36,1.079,0.876,1.079,1.523c0,1.224-0.983,1.907-2.207,1.907c-0.624-0.012-1.188-0.192-1.451-0.396L178.371,86.224z"/>
		<path d="M182.787,87.231l1.115-5.805h0.982l-1.104,5.805H182.787z M184.082,79.819c0.012-0.384,0.3-0.672,0.647-0.672
			c0.36,0,0.6,0.265,0.6,0.624c-0.013,0.396-0.288,0.672-0.684,0.672C184.298,80.443,184.082,80.18,184.082,79.819z"/>
		<path d="M185.595,88.551c0.348,0.228,0.935,0.384,1.535,0.384c0.983,0,1.751-0.492,2.087-2.062l0.191-0.876h-0.023
			c-0.516,0.827-1.224,1.235-2.016,1.235c-1.175,0-1.774-0.983-1.774-2.015c0-1.967,1.438-3.922,3.682-3.922
			c0.672,0,1.415,0.191,1.871,0.407l-0.899,4.798c-0.229,1.235-0.564,2.075-1.164,2.603c-0.587,0.491-1.367,0.636-2.026,0.636
			c-0.708,0-1.38-0.168-1.739-0.408L185.595,88.551z M190.057,82.29c-0.192-0.084-0.553-0.191-0.96-0.191
			c-1.451,0-2.458,1.522-2.458,2.95c-0.013,0.647,0.227,1.391,1.115,1.391c0.852,0,1.715-1.079,1.93-2.206L190.057,82.29z"/>
		<path d="M191.834,87.231l0.768-4.113c0.133-0.648,0.216-1.212,0.275-1.691h0.889l-0.145,1.14h0.023
			c0.516-0.816,1.309-1.271,2.147-1.271c0.696,0,1.476,0.396,1.476,1.606c0,0.265-0.049,0.624-0.108,0.936l-0.647,3.395h-0.983
			l0.636-3.358c0.035-0.228,0.072-0.491,0.072-0.743c0-0.576-0.229-1.008-0.912-1.008c-0.707,0-1.715,0.852-1.979,2.291
			l-0.528,2.818H191.834z"/>
		<path d="M204.264,87.231c0-0.348,0.061-0.899,0.133-1.499h-0.025c-0.623,1.211-1.427,1.631-2.254,1.631
			c-1.031,0-1.668-0.815-1.668-1.919c0-2.026,1.488-4.149,4.019-4.149c0.563,0,1.163,0.096,1.571,0.216l-0.6,3.034
			c-0.192,1.008-0.264,2.039-0.24,2.687H204.264z M204.912,82.17c-0.133-0.048-0.349-0.084-0.684-0.084
			c-1.512,0-2.747,1.56-2.747,3.179c0,0.647,0.228,1.283,0.995,1.283c0.828,0,1.811-1.079,2.1-2.627L204.912,82.17z"/>
		<path d="M206.689,87.231l0.768-4.113c0.133-0.648,0.217-1.212,0.276-1.691h0.888l-0.145,1.14h0.024
			c0.516-0.816,1.308-1.271,2.147-1.271c0.695,0,1.475,0.396,1.475,1.606c0,0.265-0.048,0.624-0.107,0.936l-0.648,3.395h-0.982
			l0.635-3.358c0.036-0.228,0.072-0.491,0.072-0.743c0-0.576-0.229-1.008-0.912-1.008c-0.707,0-1.715,0.852-1.979,2.291
			l-0.527,2.818H206.689z"/>
		<path d="M219.25,78.716l-1.271,6.669c-0.107,0.611-0.203,1.283-0.239,1.847h-0.911l0.156-1.151h-0.025
			c-0.527,0.827-1.259,1.283-2.086,1.283c-1.127,0-1.739-0.924-1.739-2.11c0-2.063,1.535-3.958,3.586-3.958
			c0.372,0,0.78,0.084,1.032,0.204l0.516-2.783H219.25z M217.584,82.338c-0.192-0.144-0.528-0.252-0.948-0.252
			c-1.392,0-2.471,1.487-2.471,3.034c0,0.696,0.24,1.428,1.092,1.428c0.768,0,1.69-0.876,1.942-2.183L217.584,82.338z"/>
		<path d="M225.42,87.231c0-0.348,0.06-0.899,0.131-1.499h-0.023c-0.623,1.211-1.428,1.631-2.254,1.631
			c-1.032,0-1.668-0.815-1.668-1.919c0-2.026,1.487-4.149,4.018-4.149c0.564,0,1.164,0.096,1.572,0.216l-0.601,3.034
			c-0.192,1.008-0.264,2.039-0.239,2.687H225.42z M226.067,82.17c-0.132-0.048-0.349-0.084-0.684-0.084
			c-1.511,0-2.747,1.56-2.747,3.179c0,0.647,0.229,1.283,0.996,1.283c0.827,0,1.811-1.079,2.099-2.627L226.067,82.17z"/>
		<path d="M227.846,87.231l0.768-4.113c0.131-0.648,0.215-1.212,0.275-1.691h0.888l-0.144,1.14h0.023
			c0.516-0.816,1.308-1.271,2.146-1.271c0.696,0,1.476,0.396,1.476,1.606c0,0.265-0.048,0.624-0.108,0.936l-0.646,3.395h-0.984
			l0.636-3.358c0.036-0.228,0.072-0.491,0.072-0.743c0-0.576-0.228-1.008-0.911-1.008c-0.708,0-1.715,0.852-1.979,2.291
			l-0.528,2.818H227.846z"/>
		<path d="M238.092,87.231c0-0.348,0.06-0.899,0.131-1.499h-0.023c-0.623,1.211-1.428,1.631-2.254,1.631
			c-1.032,0-1.668-0.815-1.668-1.919c0-2.026,1.487-4.149,4.018-4.149c0.564,0,1.164,0.096,1.572,0.216l-0.601,3.034
			c-0.192,1.008-0.264,2.039-0.239,2.687H238.092z M238.739,82.17c-0.132-0.048-0.349-0.084-0.684-0.084
			c-1.511,0-2.747,1.56-2.747,3.179c0,0.647,0.229,1.283,0.996,1.283c0.827,0,1.811-1.079,2.099-2.627L238.739,82.17z"/>
		<path d="M240.518,87.231l1.619-8.516h0.995l-1.619,8.516H240.518z"/>
		<path d="M244.524,81.427l0.575,3.118c0.133,0.672,0.205,1.104,0.265,1.535h0.024c0.155-0.372,0.323-0.779,0.623-1.427l1.487-3.227
			h1.056l-2.184,4.413c-0.623,1.248-1.211,2.268-2.002,3.047c-0.648,0.659-1.355,0.936-1.68,1.007l-0.252-0.863
			c0.252-0.084,0.672-0.239,1.068-0.552c0.395-0.3,0.814-0.768,1.127-1.343c0.048-0.096,0.048-0.156,0.023-0.264l-1.163-5.445
			H244.524z"/>
		<path d="M248.605,86.224c0.275,0.168,0.768,0.36,1.247,0.36c0.672,0,1.104-0.432,1.104-0.947c0-0.456-0.204-0.732-0.815-1.067
			c-0.672-0.372-1.043-0.888-1.043-1.487c0-1.008,0.875-1.787,2.098-1.787c0.528,0,0.996,0.144,1.212,0.288l-0.276,0.755
			c-0.203-0.12-0.575-0.264-1.007-0.264c-0.6,0-1.032,0.372-1.032,0.876c0,0.419,0.276,0.684,0.805,0.971
			c0.646,0.36,1.079,0.876,1.079,1.523c0,1.224-0.983,1.907-2.207,1.907c-0.624-0.012-1.188-0.192-1.451-0.396L248.605,86.224z"/>
		<path d="M253.021,87.231l1.115-5.805h0.982l-1.104,5.805H253.021z M254.316,79.819c0.012-0.384,0.3-0.672,0.647-0.672
			c0.36,0,0.6,0.265,0.6,0.624c-0.013,0.396-0.288,0.672-0.684,0.672C254.532,80.443,254.316,80.18,254.316,79.819z"/>
		<path d="M255.829,86.224c0.276,0.168,0.768,0.36,1.247,0.36c0.672,0,1.104-0.432,1.104-0.947c0-0.456-0.204-0.732-0.815-1.067
			c-0.672-0.372-1.044-0.888-1.044-1.487c0-1.008,0.876-1.787,2.1-1.787c0.527,0,0.995,0.144,1.211,0.288l-0.275,0.755
			c-0.205-0.12-0.576-0.264-1.008-0.264c-0.6,0-1.031,0.372-1.031,0.876c0,0.419,0.275,0.684,0.803,0.971
			c0.648,0.36,1.08,0.876,1.08,1.523c0,1.224-0.984,1.907-2.207,1.907c-0.623-0.012-1.188-0.192-1.451-0.396L255.829,86.224z"/>
	</g>
	<g enable-background="new    ">
		<path d="M124.996,101.632l0.959-5.025h-0.78l0.156-0.779h0.768l0.06-0.312c0.144-0.804,0.432-1.548,0.948-2.016
			c0.372-0.336,0.875-0.516,1.379-0.516c0.396,0,0.66,0.072,0.803,0.156l-0.216,0.791c-0.156-0.071-0.36-0.107-0.587-0.107
			c-0.792,0-1.176,0.768-1.343,1.727l-0.048,0.276h1.284l-0.144,0.779h-1.295l-0.947,5.025H124.996z"/>
		<path d="M133.836,98.105c0,1.8-1.271,3.658-3.226,3.658c-1.451,0-2.267-1.079-2.267-2.387c0-1.919,1.331-3.682,3.214-3.682
			C133.129,95.695,133.836,96.883,133.836,98.105z M129.375,99.341c0,0.947,0.528,1.632,1.367,1.632
			c1.175,0,2.063-1.512,2.063-2.867c0-0.671-0.312-1.619-1.355-1.619C130.203,96.486,129.375,98.01,129.375,99.341z"/>
		<path d="M134.535,101.632l0.708-3.742c0.132-0.755,0.228-1.522,0.288-2.062h0.875c-0.048,0.407-0.096,0.815-0.156,1.259h0.036
			c0.372-0.791,0.996-1.391,1.775-1.391c0.096,0,0.204,0.012,0.288,0.023l-0.192,0.983c-0.072-0.012-0.168-0.023-0.276-0.023
			c-0.863,0-1.631,1.043-1.883,2.398l-0.48,2.555H134.535z"/>
		<path d="M140.583,100.624c0.275,0.168,0.768,0.36,1.247,0.36c0.672,0,1.104-0.432,1.104-0.947c0-0.456-0.204-0.732-0.815-1.067
			c-0.672-0.372-1.043-0.888-1.043-1.487c0-1.008,0.875-1.787,2.099-1.787c0.528,0,0.996,0.144,1.211,0.288l-0.276,0.755
			c-0.204-0.12-0.576-0.264-1.007-0.264c-0.6,0-1.032,0.372-1.032,0.876c0,0.419,0.276,0.684,0.804,0.971
			c0.647,0.36,1.08,0.876,1.08,1.523c0,1.224-0.983,1.907-2.207,1.907c-0.624-0.012-1.188-0.192-1.451-0.396L140.583,100.624z"/>
		<path d="M146.27,95.827l0.576,3.118c0.132,0.672,0.204,1.104,0.264,1.535h0.024c0.156-0.372,0.324-0.779,0.624-1.427l1.487-3.227
			h1.055l-2.183,4.413c-0.624,1.248-1.211,2.268-2.003,3.047c-0.647,0.659-1.355,0.936-1.679,1.007l-0.252-0.863
			c0.252-0.084,0.672-0.239,1.068-0.552c0.396-0.3,0.815-0.768,1.127-1.343c0.048-0.096,0.048-0.156,0.024-0.264l-1.164-5.445
			H146.27z"/>
		<path d="M150.303,101.632l0.768-4.113c0.132-0.648,0.216-1.212,0.276-1.691h0.888l-0.144,1.14h0.024
			c0.516-0.816,1.308-1.271,2.147-1.271c0.696,0,1.475,0.396,1.475,1.606c0,0.265-0.048,0.624-0.108,0.936l-0.647,3.395h-0.983
			l0.635-3.358c0.036-0.228,0.072-0.491,0.072-0.743c0-0.576-0.228-1.008-0.912-1.008c-0.708,0-1.715,0.852-1.979,2.291
			l-0.528,2.818H150.303z"/>
		<path d="M159.266,94.436l-0.264,1.392h1.391l-0.155,0.779h-1.392l-0.527,2.818c-0.072,0.324-0.12,0.624-0.12,0.924
			c0,0.348,0.168,0.563,0.552,0.563c0.18,0,0.336-0.012,0.468-0.048l-0.048,0.779c-0.18,0.072-0.48,0.108-0.768,0.108
			c-0.875,0-1.224-0.528-1.224-1.128c0-0.336,0.048-0.659,0.132-1.079l0.564-2.938h-0.828l0.145-0.779h0.827l0.204-1.079
			L159.266,94.436z"/>
		<path d="M160.455,101.632l1.619-8.516h0.995l-0.72,3.73h0.024c0.491-0.708,1.199-1.151,2.075-1.151
			c0.659,0,1.439,0.396,1.439,1.559c0,0.3-0.037,0.684-0.097,0.972l-0.647,3.406h-0.996l0.648-3.358
			c0.035-0.204,0.072-0.479,0.072-0.804c0-0.527-0.252-0.947-0.9-0.947c-0.768,0-1.738,0.899-1.979,2.195l-0.54,2.914H160.455z"/>
		<path d="M171.049,101.308c-0.432,0.24-1.14,0.456-1.92,0.456c-1.535,0-2.206-1.056-2.206-2.339c0-1.751,1.295-3.729,3.166-3.729
			c1.104,0,1.703,0.659,1.703,1.499c0,1.523-1.716,1.919-3.862,1.883c-0.047,0.252-0.012,0.792,0.12,1.104
			c0.228,0.527,0.696,0.779,1.296,0.779c0.684,0,1.199-0.204,1.559-0.396L171.049,101.308z M169.945,96.475
			c-0.947,0-1.655,0.924-1.907,1.835c1.571,0.024,2.794-0.191,2.794-1.104C170.832,96.738,170.473,96.475,169.945,96.475z"/>
		<path d="M174.865,94.436l-0.264,1.392h1.391l-0.155,0.779h-1.392l-0.527,2.818c-0.072,0.324-0.12,0.624-0.12,0.924
			c0,0.348,0.168,0.563,0.552,0.563c0.18,0,0.336-0.012,0.468-0.048l-0.048,0.779c-0.18,0.072-0.48,0.108-0.768,0.108
			c-0.875,0-1.224-0.528-1.224-1.128c0-0.336,0.048-0.659,0.132-1.079l0.564-2.938h-0.828l0.145-0.779h0.827l0.204-1.079
			L174.865,94.436z"/>
		<path d="M176.055,101.632l1.115-5.805h0.983l-1.104,5.805H176.055z M177.35,94.22c0.012-0.384,0.301-0.672,0.648-0.672
			c0.359,0,0.6,0.265,0.6,0.624c-0.013,0.396-0.289,0.672-0.684,0.672C177.566,94.844,177.35,94.58,177.35,94.22z"/>
		<path d="M182.796,101.392c-0.3,0.156-0.899,0.36-1.679,0.36c-1.5,0-2.23-1.008-2.23-2.243c0-1.979,1.463-3.802,3.549-3.802
			c0.541,0,1.032,0.156,1.212,0.252l-0.288,0.792c-0.228-0.108-0.551-0.217-0.983-0.217c-1.511,0-2.458,1.487-2.458,2.854
			c0,0.936,0.491,1.548,1.439,1.548c0.6,0,1.043-0.181,1.343-0.324L182.796,101.392z"/>
		<path d="M188.629,93.116l-0.768,3.767h0.023c0.516-0.78,1.26-1.188,2.039-1.188c1.271,0,1.751,1.056,1.751,2.087
			c0,1.787-1.283,3.981-3.61,3.981c-1.02,0-1.787-0.42-1.787-1.487c0-0.288,0.049-0.636,0.108-0.911l1.247-6.249H188.629z
			 M187.369,99.389c-0.048,0.204-0.084,0.433-0.072,0.744c0,0.552,0.324,0.852,0.936,0.852c1.5,0,2.411-1.787,2.411-3.082
			c0-0.72-0.312-1.38-1.104-1.38c-0.864,0-1.751,0.888-2.039,2.255L187.369,99.389z"/>
		<path d="M192.362,101.632l1.115-5.805h0.983l-1.104,5.805H192.362z M193.658,94.22c0.012-0.384,0.299-0.672,0.646-0.672
			c0.36,0,0.6,0.265,0.6,0.624c-0.012,0.396-0.287,0.672-0.684,0.672C193.873,94.844,193.658,94.58,193.658,94.22z"/>
		<path d="M200.687,98.105c0,1.8-1.271,3.658-3.226,3.658c-1.451,0-2.268-1.079-2.268-2.387c0-1.919,1.332-3.682,3.215-3.682
			C199.979,95.695,200.687,96.883,200.687,98.105z M196.225,99.341c0,0.947,0.528,1.632,1.367,1.632
			c1.176,0,2.063-1.512,2.063-2.867c0-0.671-0.312-1.619-1.355-1.619C197.053,96.486,196.225,98.01,196.225,99.341z"/>
		<path d="M201.386,101.632l1.619-8.516H204l-1.619,8.516H201.386z"/>
		<path d="M209.698,98.105c0,1.8-1.271,3.658-3.226,3.658c-1.451,0-2.268-1.079-2.268-2.387c0-1.919,1.332-3.682,3.215-3.682
			C208.99,95.695,209.698,96.883,209.698,98.105z M205.236,99.341c0,0.947,0.528,1.632,1.367,1.632c1.176,0,2.063-1.512,2.063-2.867
			c0-0.671-0.312-1.619-1.355-1.619C206.064,96.486,205.236,98.01,205.236,99.341z"/>
		<path d="M210.481,102.951c0.348,0.228,0.935,0.384,1.535,0.384c0.983,0,1.751-0.492,2.087-2.062l0.191-0.876h-0.023
			c-0.516,0.827-1.224,1.235-2.016,1.235c-1.175,0-1.774-0.983-1.774-2.015c0-1.967,1.438-3.922,3.682-3.922
			c0.672,0,1.415,0.191,1.871,0.407l-0.899,4.798c-0.229,1.235-0.564,2.075-1.164,2.603c-0.587,0.491-1.367,0.636-2.026,0.636
			c-0.708,0-1.38-0.168-1.739-0.408L210.481,102.951z M214.943,96.69c-0.192-0.084-0.553-0.191-0.96-0.191
			c-1.451,0-2.458,1.522-2.458,2.95c-0.013,0.647,0.227,1.391,1.115,1.391c0.852,0,1.715-1.079,1.93-2.206L214.943,96.69z"/>
		<path d="M217.98,95.827l0.576,3.118c0.132,0.672,0.203,1.104,0.264,1.535h0.023c0.156-0.372,0.324-0.779,0.624-1.427l1.487-3.227
			h1.055l-2.182,4.413c-0.624,1.248-1.212,2.268-2.004,3.047c-0.646,0.659-1.355,0.936-1.679,1.007l-0.251-0.863
			c0.251-0.084,0.671-0.239,1.066-0.552c0.396-0.3,0.816-0.768,1.127-1.343c0.049-0.096,0.049-0.156,0.025-0.264l-1.164-5.445
			H217.98z"/>
	</g>
	<path fill="#43A247" d="M120.289,61.377c0,29.405-23.838,53.249-53.248,53.249c-29.412,0-53.253-23.844-53.253-53.249
		c0-29.392,23.841-53.231,53.253-53.231C96.451,8.146,120.289,31.985,120.289,61.377z"/>
	<path fill="#8DC66B" d="M114.999,71.536c-0.325,1.543-0.724,3.059-1.185,4.545L77.292,54.586c-0.794-1.185-1.795-2.215-2.939-3.057
		l39.063-5.886c0.453,1.318,0.854,2.654,1.19,4.018l-0.331-0.192l-5.922,0.805l7.139,4.204l0.041-0.057
		c0.222,1.532,0.382,3.083,0.455,4.656l-13.581-7.99l-5.924,0.811l19.511,11.465c-0.051,1.443-0.176,2.856-0.357,4.263
		l-25.325-14.89l-5.924,0.808L114.999,71.536z"/>
	<path fill="#8DC66B" d="M36.777,99.914l0.005,0.029c-1.209-0.954-2.374-1.961-3.49-3.029l15.302-3.572l3.729-4.675l-22.021,5.147
		c-0.943-1.064-1.849-2.18-2.695-3.32l28.597-6.692l3.738-4.68l-34.559,8.092c-0.513-0.833-1.013-1.677-1.479-2.544l43.433-10.915
		c0.323,0,0.651-0.012,0.975-0.045l-24.509,30.856c-1.033-0.56-2.035-1.164-3.018-1.789l0.338-0.079l3.729-4.677L36.777,99.914z"/>
	<path fill="#8DC66B" d="M18.58,68.693c-0.233-1.557-0.397-3.143-0.477-4.744l17.236,11.203l4.497-1.488l-21.75-14.127
		c0.056-1.47,0.18-2.92,0.367-4.354l26.07,16.928l4.498-1.485L19.124,51.201c0.218-1.011,0.47-2.007,0.748-2.996L57.317,69.01
		c0.823,1.051,1.809,1.973,2.93,2.717l-38.002,9.545c-1.068-2.402-1.96-4.908-2.631-7.489l6.713,4.36l4.497-1.492L18.58,68.693z"/>
	<path fill="#FFFFFF" d="M67.046,52.806c4.763,0,8.637,3.876,8.637,8.628c0,1.97-0.672,3.782-1.792,5.238l-0.277,0.357
		c-1.584,1.859-3.943,3.043-6.571,3.043c-4.763,0-8.644-3.879-8.644-8.634C58.403,56.684,62.284,52.806,67.046,52.806z"/>
	<path fill="#8DC66B" d="M102.665,27.852l-19.072,4.334l-2.066,4.264l23.887-5.426c0.868,1.091,1.697,2.223,2.478,3.391
		l-28.521,6.477l-2.063,4.269l32.61-7.408c0.79,1.413,1.505,2.867,2.15,4.361l-45.267,6.819l22.323-31.199
		c2.343,1.182,4.572,2.548,6.673,4.078l-8.066,1.835l-2.071,4.26l13.823-3.139C100.588,25.744,101.651,26.776,102.665,27.852z"/>
	<path fill="#8DC66B" d="M69.779,12.534L57.84,28.289l0.178,5.975L74.08,12.963c1.247,0.18,2.48,0.415,3.698,0.686L58.75,38.94
		l0.183,5.981L81.75,14.709c1.339,0.423,2.657,0.909,3.953,1.445L60.957,50.729c-1.437,0.818-2.682,1.91-3.684,3.204L51.31,15.054
		c2.888-0.981,5.891-1.699,8.998-2.132l-3.848,5.275l0.186,5.975l8.541-11.638l-0.05-0.037c0.633-0.022,1.269-0.05,1.91-0.05
		C67.966,12.45,68.875,12.48,69.779,12.534z"/>
	<path fill="#8DC66B" d="M32.551,26.676l3.135,20.277l4.109,2.355l-3.96-25.614c1.118-0.924,2.291-1.802,3.494-2.632l4.745,30.703
		l4.109,2.36L42.74,18.927c1.619-0.93,3.295-1.778,5.026-2.521l6.941,45.24c0.012,0.601,0.07,1.186,0.167,1.761L21.021,44.609
		c1.335-3.64,3.099-7.074,5.217-10.255l1.219,7.874l4.109,2.36l-2.227-14.399C30.352,28.967,31.427,27.796,32.551,26.676z"/>
	<path fill="#8DC66B" d="M63.825,110.316l13.133-15.791l-0.951-4.643l-16.601,19.954c-1.449-0.228-2.879-0.519-4.291-0.871
		l19.888-23.911l-0.951-4.645L51.26,107.82c-1.381-0.476-2.732-0.998-4.054-1.59L76.492,69.35c0.074-0.082,0.138-0.17,0.212-0.26
		l0.279-0.354l5.813,39.088c-2.901,0.986-5.922,1.711-9.034,2.142l5.103-6.144l-0.949-4.643l-9.323,11.215
		c-0.517,0.017-1.026,0.043-1.546,0.043C65.964,110.441,64.891,110.396,63.825,110.316z"/>
	<path fill="#8DC66B" d="M101.342,96.395l-3.026-20.285l-4.088-2.381l3.809,25.633c-1.125,0.922-2.302,1.801-3.508,2.625
		l-4.57-30.746l-4.094-2.383l5.239,35.244c-1.54,0.877-3.132,1.668-4.77,2.373L79.45,60.143l33.09,19.478
		c-1.296,3.232-2.912,6.305-4.834,9.148l-1.174-7.892l-4.103-2.386l2.139,14.406C103.552,94.12,102.47,95.285,101.342,96.395z"/>
	<g>
		<g enable-background="new    ">
			<path fill="#43A247" d="M132.851,40.613l10.868,27.544l10.824-27.544h4.4v31.416h-2.992V44.881h-0.088l-10.736,27.148h-2.816
				l-10.78-27.148h-0.088v27.148h-2.992V40.613H132.851z"/>
			<path fill="#43A247" d="M167.479,40.613v4.444h-2.771v-4.444H167.479z M167.479,49.325v22.704h-2.771V49.325H167.479z"/>
			<path fill="#43A247" d="M175.618,40.613v31.416h-2.772V40.613H175.618z"/>
			<path fill="#43A247" d="M183.758,40.613v31.416h-2.771V40.613H183.758z"/>
			<path fill="#43A247" d="M202.15,53.747c-0.324-0.63-0.756-1.15-1.299-1.562s-1.166-0.711-1.869-0.902
				c-0.705-0.19-1.453-0.286-2.244-0.286c-0.616,0-1.24,0.066-1.871,0.198s-1.209,0.352-1.737,0.66
				c-0.528,0.308-0.954,0.711-1.276,1.21s-0.483,1.115-0.483,1.848c0,0.616,0.153,1.138,0.462,1.562s0.696,0.785,1.166,1.078
				c0.469,0.293,0.982,0.535,1.54,0.726c0.557,0.191,1.07,0.345,1.54,0.462l3.695,0.836c0.793,0.118,1.576,0.33,2.354,0.638
				c0.776,0.309,1.466,0.712,2.067,1.211s1.094,1.114,1.475,1.848s0.572,1.599,0.572,2.596c0,1.232-0.279,2.281-0.836,3.146
				c-0.559,0.865-1.27,1.569-2.135,2.111c-0.865,0.544-1.841,0.932-2.926,1.166c-1.086,0.234-2.156,0.353-3.212,0.353
				c-2.669,0-4.833-0.631-6.489-1.893c-1.658-1.261-2.604-3.284-2.839-6.071h2.772c0.117,1.877,0.799,3.293,2.046,4.246
				c1.246,0.953,2.794,1.43,4.642,1.43c0.675,0,1.371-0.073,2.09-0.22s1.387-0.396,2.002-0.748c0.617-0.353,1.123-0.799,1.519-1.343
				c0.396-0.542,0.594-1.21,0.594-2.002c0-0.674-0.14-1.238-0.418-1.693s-0.653-0.836-1.122-1.145
				c-0.469-0.308-1.005-0.564-1.605-0.77c-0.602-0.205-1.211-0.381-1.826-0.528l-3.564-0.792c-0.909-0.234-1.745-0.506-2.508-0.813
				c-0.764-0.309-1.43-0.689-2.002-1.145c-0.572-0.454-1.02-1.012-1.342-1.672c-0.323-0.66-0.484-1.474-0.484-2.442
				c0-1.144,0.257-2.126,0.77-2.947c0.514-0.821,1.182-1.481,2.003-1.98c0.821-0.498,1.737-0.865,2.75-1.1
				c1.012-0.234,2.017-0.353,3.014-0.353c1.144,0,2.207,0.147,3.19,0.44c0.982,0.293,1.848,0.748,2.596,1.364
				c0.748,0.615,1.342,1.379,1.781,2.287c0.441,0.91,0.689,1.98,0.748,3.213h-2.771C202.648,55.119,202.473,54.379,202.15,53.747z"
				/>
			<path fill="#43A247" d="M219.266,49.325v2.332h-4.62V66.97c0,0.909,0.124,1.621,0.374,2.134c0.249,0.514,0.873,0.8,1.87,0.857
				c0.792,0,1.584-0.044,2.376-0.132v2.332c-0.411,0-0.822,0.015-1.232,0.044s-0.821,0.044-1.232,0.044
				c-1.848,0-3.139-0.358-3.871-1.078c-0.734-0.718-1.086-2.046-1.057-3.981V51.657h-3.959v-2.332h3.959v-6.82h2.772v6.82H219.266z"
				/>
			<path fill="#43A247" d="M237.459,49.633c1.334,0.646,2.457,1.512,3.365,2.597c0.91,1.085,1.6,2.354,2.068,3.806
				s0.704,3,0.704,4.643s-0.235,3.189-0.704,4.642s-1.158,2.721-2.068,3.806c-0.908,1.086-2.031,1.944-3.365,2.574
				c-1.335,0.631-2.867,0.946-4.598,0.946c-1.731,0-3.264-0.315-4.599-0.946c-1.335-0.63-2.457-1.488-3.366-2.574
				c-0.909-1.085-1.599-2.354-2.067-3.806c-0.47-1.452-0.704-2.999-0.704-4.642s0.234-3.19,0.704-4.643
				c0.469-1.452,1.158-2.721,2.067-3.806s2.031-1.95,3.366-2.597c1.335-0.645,2.867-0.968,4.599-0.968
				C234.592,48.665,236.124,48.988,237.459,49.633z M229.385,51.833c-0.998,0.558-1.826,1.291-2.486,2.2s-1.158,1.943-1.496,3.103
				c-0.337,1.158-0.506,2.339-0.506,3.542s0.169,2.383,0.506,3.542c0.338,1.159,0.836,2.192,1.496,3.102s1.488,1.644,2.486,2.2
				c0.997,0.558,2.156,0.836,3.477,0.836c1.319,0,2.479-0.278,3.476-0.836c0.997-0.557,1.826-1.291,2.485-2.2
				c0.66-0.909,1.159-1.942,1.496-3.102c0.338-1.159,0.506-2.339,0.506-3.542s-0.168-2.384-0.506-3.542
				c-0.337-1.159-0.836-2.193-1.496-3.103c-0.659-0.909-1.488-1.643-2.485-2.2c-0.997-0.557-2.156-0.836-3.476-0.836
				C231.541,50.997,230.382,51.276,229.385,51.833z"/>
			<path fill="#43A247" d="M250.461,49.325v3.916h0.088c0.527-1.378,1.467-2.486,2.816-3.322c1.349-0.836,2.83-1.254,4.443-1.254
				c1.584,0,2.911,0.206,3.982,0.616c1.07,0.411,1.928,0.99,2.574,1.738c0.645,0.748,1.1,1.665,1.363,2.75s0.396,2.303,0.396,3.651
				v14.608h-2.772V57.861c0-0.968-0.088-1.87-0.264-2.706c-0.177-0.836-0.483-1.562-0.925-2.178
				c-0.439-0.616-1.033-1.101-1.781-1.452c-0.748-0.353-1.68-0.528-2.794-0.528c-1.115,0-2.104,0.198-2.97,0.594
				c-0.865,0.396-1.6,0.939-2.2,1.629c-0.602,0.689-1.071,1.511-1.408,2.464s-0.521,1.987-0.55,3.102v13.244h-2.771V49.325H250.461z
				"/>
			<path fill="#43A247" d="M273.406,64.527c0.278,1.071,0.727,2.031,1.342,2.882c0.616,0.852,1.393,1.556,2.332,2.112
				c0.938,0.558,2.068,0.836,3.389,0.836c2.023,0,3.607-0.528,4.752-1.584c1.144-1.056,1.936-2.464,2.375-4.225h2.772
				c-0.587,2.582-1.665,4.576-3.233,5.984c-1.57,1.408-3.792,2.112-6.666,2.112c-1.79,0-3.338-0.315-4.643-0.946
				c-1.306-0.63-2.369-1.496-3.189-2.596c-0.822-1.101-1.431-2.376-1.826-3.828c-0.396-1.452-0.594-2.984-0.594-4.598
				c0-1.496,0.197-2.963,0.594-4.4c0.396-1.437,1.004-2.721,1.826-3.85c0.82-1.129,1.884-2.039,3.189-2.729
				c1.305-0.688,2.853-1.034,4.643-1.034c1.818,0,3.373,0.367,4.664,1.101c1.29,0.733,2.338,1.693,3.146,2.882
				c0.806,1.188,1.386,2.552,1.737,4.092c0.353,1.54,0.499,3.102,0.44,4.687h-17.468C272.988,62.423,273.127,63.457,273.406,64.527z
				 M287.135,56.058c-0.338-0.969-0.814-1.826-1.431-2.574s-1.364-1.349-2.243-1.804c-0.881-0.455-1.879-0.683-2.992-0.683
				c-1.145,0-2.156,0.228-3.037,0.683c-0.879,0.455-1.627,1.056-2.244,1.804c-0.615,0.748-1.107,1.613-1.473,2.596
				c-0.367,0.983-0.609,1.987-0.727,3.015h14.695C287.654,58.037,287.471,57.025,287.135,56.058z"/>
		</g>
	</g>
</g>
</svg>
